<svg xmlns="http://www.w3.org/2000/svg" width="32" height="32" viewBox="0 0 32 32" fill="none">
  <g opacity="0.5">
    <path d="M8 20.5335V23.8679H11.3323L21.1598 14.0373L17.8285 10.705L8 20.5335ZM23.7401 11.46C23.8225 11.3778 23.8878 11.2802 23.9324 11.1727C23.977 11.0651 24 10.9499 24 10.8335C24 10.7171 23.977 10.6019 23.9324 10.4944C23.8878 10.3869 23.8225 10.2892 23.7401 10.207L21.6588 8.12776C21.5766 8.04538 21.4789 7.98001 21.3714 7.93541C21.2639 7.89082 21.1487 7.86786 21.0323 7.86786C20.9159 7.86786 20.8006 7.89082 20.6931 7.93541C20.5856 7.98001 20.488 8.04538 20.4058 8.12776L18.7796 9.7539L22.1119 13.0862L23.7401 11.46Z" fill="#606060"/>
  </g>
</svg>