<svg width="112" height="80" viewBox="0 0 112 80" fill="none" xmlns="http://www.w3.org/2000/svg">
<g id="Frame" clip-path="url(#clip0_322_620)">
<path id="Path 3" d="M12.2112 72.1084L9.43588 78.8019L6.67255 72.1084H5.69525L9.03653 79.9348H9.81415L13.1554 72.1084H12.2112Z" fill="#004687"/>
<path id="Path 4" d="M22.223 72.1084V79.8786H27.8952V79.0759H23.098V76.3567H27.3403V75.554H23.098V72.901H27.842V72.0983L22.223 72.1084Z" fill="#004687"/>
<path id="Path 5" d="M42.9088 72.1084V78.3354L38.0133 72.1074H37.1915V79.8776H38.0484V73.5061L43.0654 79.8776H43.7677V72.1074L42.9088 72.1084Z" fill="#004687"/>
<path id="Path 6" d="M52.9417 72.1084V72.9191H55.5505V79.8786H56.4385V72.9171H59.0473V72.1064L52.9417 72.1084Z" fill="#004687"/>
<path id="Path 7" d="M68.1028 76.6296V72.1144H68.9798V76.5764C68.9798 78.2521 69.8678 79.1963 71.3558 79.1963C72.7877 79.1963 73.6977 78.3304 73.6977 76.6316V72.1164H74.5747V76.5674C74.5747 78.8321 73.2753 80.009 71.3338 80.009C70.8893 80.0389 70.4437 79.9709 70.0284 79.8098C69.6131 79.6487 69.2382 79.3984 68.9302 79.0766C68.6222 78.7548 68.3886 78.3694 68.2458 77.9474C68.103 77.5255 68.0545 77.0773 68.1039 76.6346" fill="#004687"/>
<path id="Path 8" d="M84.1841 72.1134H87.5254C88.335 72.0698 89.1289 72.3491 89.7329 72.89C89.9292 73.0931 90.0834 73.3331 90.1868 73.596C90.2901 73.8589 90.3404 74.1397 90.3349 74.4222V74.4442C90.3342 75.0179 90.1166 75.5701 89.7258 75.9901C89.335 76.4101 88.7999 76.6669 88.2278 76.7089L90.6138 79.8836H89.5372L87.2836 76.8644H85.0571V79.8836H84.1801L84.1841 72.1134ZM87.4481 76.0757C88.6141 76.0757 89.4459 75.4737 89.4459 74.4774V74.4553C89.4459 73.5011 88.7134 72.9231 87.4592 72.9231H85.0571V76.0757H87.4481Z" fill="#004687"/>
<path id="Path 9" d="M99.7437 72.1084H105.363V72.9111H100.623V75.564H104.863V76.3667H100.623V79.0859H105.418V79.8886H99.7457L99.7437 72.1084Z" fill="#004687"/>
<path id="Path 10" d="M93.4544 12.4671C89.0115 12.4614 84.731 14.1372 81.473 17.1579V17.1519H75.7979V60.2393H81.473V43.0894C83.5838 45.0423 86.1395 46.4501 88.9182 47.1907C91.6968 47.9312 94.6142 47.982 97.4169 47.3386C100.22 46.6952 102.823 45.3772 105 43.4989C107.178 41.6207 108.864 39.2392 109.911 36.5612C110.959 33.8833 111.337 30.99 111.013 28.1328C110.688 25.2756 109.67 22.5409 108.048 20.1663C106.427 17.7918 104.249 15.8492 101.706 14.5074C99.1626 13.1656 96.33 12.4652 93.4544 12.4671ZM93.4544 42.1051C91.0847 42.1051 88.7682 41.4024 86.7979 40.0859C84.8276 38.7693 83.2919 36.8981 82.385 34.7088C81.4782 32.5194 81.2409 30.1104 81.7032 27.7862C82.1655 25.462 83.3066 23.3271 84.9823 21.6515C86.6579 19.9759 88.7928 18.8348 91.117 18.3724C93.4411 17.9101 95.8502 18.1474 98.0395 19.0543C100.229 19.9611 102.1 21.4968 103.417 23.4671C104.733 25.4375 105.436 27.754 105.436 30.1237C105.436 31.6971 105.126 33.2552 104.524 34.7089C103.922 36.1626 103.039 37.4835 101.927 38.5961C100.814 39.7087 99.4934 40.5913 98.0397 41.1933C96.586 41.7954 95.0279 42.1052 93.4544 42.1051Z" fill="#004687"/>
<path id="Path 11" d="M17.6596 12.4671C14.7839 12.4647 11.9511 13.1647 9.40741 14.5062C6.86372 15.8476 4.68612 17.79 3.06385 20.1645C1.44158 22.5389 0.423719 25.2736 0.0987308 28.131C-0.226257 30.9883 0.151459 33.8817 1.19905 36.5599C2.24665 39.238 3.93242 41.6198 6.10988 43.4982C8.28733 45.3766 10.8906 46.6949 13.6934 47.3384C16.4962 47.982 19.4138 47.9313 22.1925 47.1908C24.9713 46.4503 27.5272 45.0424 29.6381 43.0894V43.0954C29.6381 46.2726 28.3761 49.3197 26.1298 51.5665C23.8835 53.8134 20.8368 55.0761 17.6596 55.0769V60.752C22.3432 60.752 26.835 58.8915 30.1468 55.5797C33.4587 52.2678 35.3192 47.7761 35.3192 43.0924V17.1609H29.6401C26.3827 14.1394 22.1026 12.4624 17.6596 12.4671ZM17.6596 42.1051C15.2898 42.1057 12.973 41.4035 11.0023 40.0873C9.03154 38.7712 7.49538 36.9001 6.58807 34.7109C5.68077 32.5216 5.44306 30.1124 5.90503 27.7881C6.367 25.4637 7.50788 23.3285 9.18339 21.6526C10.8589 19.9766 12.9938 18.8352 15.318 18.3727C17.6423 17.9101 20.0515 18.1472 22.241 19.054C24.4305 19.9607 26.3019 21.4964 27.6186 23.4668C28.9353 25.4372 29.6381 27.7538 29.6381 30.1237C29.6383 33.3009 28.3765 36.3481 26.1301 38.5951C23.8838 40.842 20.8369 42.1046 17.6596 42.1051Z" fill="#004687"/>
<path id="Path 12" d="M67.2831 17.1579C64.7618 14.8265 61.6156 13.2807 58.2294 12.7098C54.8432 12.1389 51.3641 12.5677 48.2178 13.9435C45.0715 15.3194 42.3946 17.5828 40.5148 20.4565C38.635 23.3302 37.6339 26.6897 37.6339 30.1237C37.6339 33.5576 38.635 36.9171 40.5148 39.7908C42.3946 42.6646 45.0715 44.9279 48.2178 46.3038C51.3641 47.6797 54.8432 48.1084 58.2294 47.5375C61.6156 46.9666 64.7618 45.4208 67.2831 43.0894V43.0954H72.9582V0H67.2831V17.1579ZM55.3036 42.1051C52.9338 42.1055 50.6171 41.4031 48.6465 40.0868C46.6759 38.7705 45.1399 36.8994 44.2328 34.7102C43.3256 32.5209 43.0881 30.1117 43.5502 27.7874C44.0122 25.4631 45.1532 23.3281 46.8288 21.6522C48.5043 19.9764 50.6392 18.8351 52.9634 18.3726C55.2876 17.9101 57.6968 18.1473 59.8862 19.0541C62.0757 19.9609 63.947 21.4965 65.2637 23.4669C66.5803 25.4373 67.2831 27.7539 67.2831 30.1237C67.2832 31.697 66.9734 33.2549 66.3715 34.7085C65.7695 36.162 64.8872 37.4828 63.7748 38.5954C62.6624 39.708 61.3417 40.5906 59.8883 41.1928C58.4348 41.795 56.8769 42.105 55.3036 42.1051Z" fill="#004687"/>
</g>
<defs>
<clipPath id="clip0_322_620">
<rect width="111.112" height="80" fill="white"/>
</clipPath>
</defs>
</svg>
