<svg width="46" height="33" viewBox="0 0 46 33" fill="none" xmlns="http://www.w3.org/2000/svg">
<g clip-path="url(#clip0_144_643)">
<path d="M5.66222 29.2876L4.55208 31.965L3.44676 29.2876H3.05585L4.39235 32.4181H4.70339L6.03989 29.2876H5.66222Z" fill="#F5F5F5"/>
<path d="M9.6669 29.2876V32.3956H11.9357V32.0746H10.0169V30.9869H11.7138V30.6658H10.0169V29.6047H11.9145V29.2836L9.6669 29.2876Z" fill="#F5F5F5"/>
<path d="M17.9412 29.2876V31.7784L15.983 29.2872H15.6543V32.3953H15.997V29.8467L18.0038 32.3953H18.2847V29.2872L17.9412 29.2876Z" fill="#F5F5F5"/>
<path d="M21.9543 29.2875V29.6118H22.9978V32.3956H23.353V29.611H24.3965V29.2867L21.9543 29.2875Z" fill="#F5F5F5"/>
<path d="M28.0187 31.0961V29.29H28.3695V31.0748C28.3695 31.7451 28.7247 32.1228 29.3199 32.1228C29.8926 32.1228 30.2566 31.7764 30.2566 31.0969V29.2908H30.6074V31.0712C30.6074 31.9771 30.0876 32.4479 29.311 32.4479C29.1333 32.4598 28.955 32.4326 28.7889 32.3682C28.6228 32.3037 28.4728 32.2036 28.3496 32.0749C28.2264 31.9462 28.133 31.792 28.0759 31.6232C28.0187 31.4545 27.9994 31.2752 28.0191 31.0981" fill="#F5F5F5"/>
<path d="M34.4511 29.2896H35.7876C36.1115 29.2722 36.429 29.3839 36.6706 29.6003C36.7491 29.6815 36.8108 29.7775 36.8522 29.8827C36.8935 29.9878 36.9136 30.1001 36.9114 30.2131V30.222C36.9111 30.4514 36.8241 30.6723 36.6678 30.8403C36.5115 31.0083 36.2974 31.111 36.0686 31.1278L37.023 32.3977H36.5923L35.6909 31.19H34.8003V32.3977H34.4495L34.4511 29.2896ZM35.7567 30.8745C36.2231 30.8745 36.5558 30.6337 36.5558 30.2352V30.2264C36.5558 29.8447 36.2628 29.6135 35.7611 29.6135H34.8003V30.8745H35.7567Z" fill="#F5F5F5"/>
<path d="M40.6749 29.2876H42.9225V29.6087H41.0265V30.6699H42.7226V30.9909H41.0265V32.0786H42.9445V32.3997H40.6757L40.6749 29.2876Z" fill="#F5F5F5"/>
<path d="M38.1592 5.43128C36.3821 5.429 34.6699 6.09933 33.3667 7.3076V7.30519H31.0966V24.54H33.3667V17.6801C34.211 18.4613 35.2333 19.0244 36.3447 19.3206C37.4562 19.6168 38.6231 19.6371 39.7442 19.3798C40.8653 19.1224 41.9066 18.5952 42.7775 17.8439C43.6485 17.0926 44.3229 16.14 44.742 15.0689C45.1611 13.9977 45.3123 12.8404 45.1824 11.6975C45.0525 10.5546 44.6456 9.46077 43.9968 8.51095C43.348 7.56114 42.4772 6.78411 41.4598 6.2474C40.4425 5.71069 39.3095 5.43054 38.1592 5.43128ZM38.1592 17.2864C37.2114 17.2864 36.2848 17.0053 35.4966 16.4787C34.7085 15.9521 34.0942 15.2036 33.7315 14.3279C33.3688 13.4522 33.2739 12.4885 33.4588 11.5589C33.6437 10.6292 34.1001 9.77527 34.7704 9.10503C35.4406 8.43478 36.2946 7.97833 37.2243 7.79341C38.1539 7.60849 39.1175 7.7034 39.9932 8.06613C40.869 8.42887 41.6175 9.04314 42.1441 9.83127C42.6707 10.6194 42.9518 11.546 42.9518 12.4939C42.9518 13.1232 42.8279 13.7465 42.5871 14.3279C42.3462 14.9094 41.9932 15.4378 41.5482 15.8828C41.1031 16.3279 40.5748 16.6809 39.9933 16.9217C39.4118 17.1625 38.7886 17.2865 38.1592 17.2864Z" fill="#F5F5F5"/>
<path d="M7.84156 5.43128C6.69127 5.43034 5.55816 5.71033 4.5407 6.24691C3.52323 6.78349 2.6522 7.56043 2.0033 8.51021C1.35439 9.45998 0.947251 10.5539 0.817257 11.6968C0.687263 12.8397 0.838348 13.9971 1.25738 15.0683C1.67642 16.1396 2.35072 17.0923 3.2217 17.8436C4.09267 18.595 5.13396 19.1223 6.25508 19.3797C7.37619 19.6371 8.54321 19.6168 9.6547 19.3206C10.7662 19.0244 11.7885 18.4613 12.6329 17.6801V17.6825C12.6329 18.9534 12.1281 20.1722 11.2296 21.0709C10.3311 21.9697 9.11241 22.4747 7.84156 22.4751V24.7451C9.71499 24.7451 11.5117 24.0009 12.8364 22.6762C14.1611 21.3515 14.9053 19.5548 14.9053 17.6813V7.3088H12.6337C11.3308 6.10019 9.61873 5.42942 7.84156 5.43128ZM7.84156 17.2864C6.89363 17.2866 5.96693 17.0058 5.17864 16.4793C4.39035 15.9528 3.77589 15.2044 3.41297 14.3287C3.05005 13.453 2.95497 12.4894 3.13976 11.5596C3.32454 10.6299 3.78089 9.77582 4.45109 9.10545C5.12129 8.43508 5.97524 7.97852 6.90493 7.7935C7.83463 7.60848 8.79831 7.70332 9.6741 8.06602C10.5499 8.42872 11.2985 9.04299 11.8251 9.83114C12.3518 10.6193 12.6329 11.5459 12.6329 12.4939C12.633 13.7647 12.1283 14.9836 11.2297 15.8824C10.3312 16.7811 9.11244 17.2862 7.84156 17.2864Z" fill="#F5F5F5"/>
<path d="M27.6908 7.30757C26.6823 6.37501 25.4238 5.75671 24.0694 5.52835C22.7149 5.29999 21.3232 5.47148 20.0647 6.02183C18.8063 6.57218 17.7355 7.4775 16.9836 8.62699C16.2317 9.77648 15.8312 11.1203 15.8312 12.4938C15.8312 13.8674 16.2317 15.2112 16.9836 16.3607C17.7355 17.5102 18.8063 18.4155 20.0647 18.9658C21.3232 19.5162 22.7149 19.6877 24.0694 19.4593C25.4238 19.2309 26.6823 18.6126 27.6908 17.6801V17.6825H29.9608V0.444458H27.6908V7.30757ZM22.8991 17.2864C21.9512 17.2865 21.0245 17.0056 20.2363 16.4791C19.448 15.9526 18.8336 15.2041 18.4708 14.3284C18.1079 13.4527 18.0129 12.4891 18.1977 11.5593C18.3825 10.6296 18.8389 9.77561 19.5091 9.10528C20.1794 8.43495 21.0333 7.97842 21.963 7.79344C22.8927 7.60845 23.8563 7.70331 24.7321 8.06602C25.6079 8.42874 26.3564 9.04301 26.883 9.83115C27.4097 10.6193 27.6908 11.5459 27.6908 12.4938C27.6908 13.1231 27.5669 13.7463 27.3262 14.3277C27.0854 14.9092 26.7324 15.4375 26.2875 15.8825C25.8425 16.3275 25.3143 16.6806 24.7329 16.9214C24.1515 17.1623 23.5284 17.2863 22.8991 17.2864Z" fill="#F5F5F5"/>
</g>
<defs>
<clipPath id="clip0_144_643">
<rect width="44.4444" height="31.9997" fill="white" transform="translate(0.777771 0.444458)"/>
</clipPath>
</defs>
</svg>
