<svg width="32" height="32" viewBox="0 0 32 32" fill="none" xmlns="http://www.w3.org/2000/svg">
<path d="M16 3C16.3378 2.99999 16.666 3.10252 16.9327 3.29138L28.4136 11.4223C28.5962 11.5516 28.744 11.7172 28.8456 11.9064C28.9472 12.0956 29 12.3034 29 12.5141V25.2905C28.9987 26.2729 28.5694 27.2148 27.8064 27.9095C27.0434 28.6043 26.009 28.9951 24.93 28.9963H7.07003C5.991 28.9951 4.95655 28.6043 4.19356 27.9095C3.43058 27.2148 3.00134 26.2729 3 25.2905V12.5141C2.99999 12.3034 3.05281 12.0956 3.15443 11.9064C3.25605 11.7172 3.40378 11.5516 3.58635 11.4223L15.0673 3.29138C15.334 3.10252 15.6622 2.99999 16 3ZM25.9619 13.1899L16 6.13509L6.03809 13.1899V25.2905C6.03836 25.5396 6.14717 25.7784 6.34064 25.9546C6.53411 26.1307 6.79643 26.2298 7.07003 26.2301H24.93C25.2036 26.2298 25.4659 26.1307 25.6594 25.9546C25.8528 25.7784 25.9616 25.5396 25.9619 25.2905V13.1899Z" fill="#004687"/>
<path d="M19.8271 29C19.4243 29 19.0379 28.8543 18.753 28.5949C18.4681 28.3355 18.3081 27.9837 18.3081 27.6169V17.3817H13.6922V27.6169C13.6922 27.9837 13.5322 28.3355 13.2473 28.5949C12.9624 28.8543 12.576 29 12.1732 29C11.7703 29 11.3839 28.8543 11.099 28.5949C10.8142 28.3355 10.6541 27.9837 10.6541 27.6169V15.9986C10.6541 15.6318 10.8142 15.28 11.099 15.0206C11.3839 14.7612 11.7703 14.6155 12.1732 14.6155H19.8271C20.23 14.6155 20.6164 14.7612 20.9013 15.0206C21.1861 15.28 21.3462 15.6318 21.3462 15.9986V27.6169C21.3462 27.9837 21.1861 28.3355 20.9013 28.5949C20.6164 28.8543 20.23 29 19.8271 29Z" fill="#004687"/>
</svg>
