<svg width="18" height="19" viewBox="0 0 18 19" fill="none" xmlns="http://www.w3.org/2000/svg">
<path d="M4.38333 2.73429C4.38333 2.26928 4.56805 1.82331 4.89687 1.4945C5.22568 1.16568 5.67165 0.980957 6.13666 0.980957H11.3967C11.8617 0.980957 12.3076 1.16568 12.6364 1.4945C12.9653 1.82331 13.15 2.26928 13.15 2.73429V4.48762H16.6566C16.8892 4.48762 17.1121 4.57998 17.2765 4.74439C17.441 4.9088 17.5333 5.13178 17.5333 5.36429C17.5333 5.59679 17.441 5.81978 17.2765 5.98418C17.1121 6.14859 16.8892 6.24095 16.6566 6.24095H15.7195L14.9594 16.8854C14.9279 17.3278 14.73 17.7418 14.4055 18.044C14.0809 18.3462 13.6539 18.5143 13.2105 18.5143H4.32196C3.87849 18.5143 3.45149 18.3462 3.12697 18.044C2.80244 17.7418 2.6045 17.3278 2.57301 16.8854L1.8147 6.24095H0.876666C0.644159 6.24095 0.421176 6.14859 0.256769 5.98418C0.0923627 5.81978 0 5.59679 0 5.36429C0 5.13178 0.0923627 4.9088 0.256769 4.74439C0.421176 4.57998 0.644159 4.48762 0.876666 4.48762H4.38333V2.73429ZM6.13666 4.48762H11.3967V2.73429H6.13666V4.48762ZM3.57154 6.24095L4.32284 16.7609H13.2114L13.9627 6.24095H3.57154ZM7.01333 7.99428C7.24583 7.99428 7.46881 8.08665 7.63322 8.25105C7.79763 8.41546 7.88999 8.63844 7.88999 8.87095V14.1309C7.88999 14.3634 7.79763 14.5864 7.63322 14.7508C7.46881 14.9152 7.24583 15.0076 7.01333 15.0076C6.78082 15.0076 6.55784 14.9152 6.39343 14.7508C6.22902 14.5864 6.13666 14.3634 6.13666 14.1309V8.87095C6.13666 8.63844 6.22902 8.41546 6.39343 8.25105C6.55784 8.08665 6.78082 7.99428 7.01333 7.99428ZM10.52 7.99428C10.7525 7.99428 10.9755 8.08665 11.1399 8.25105C11.3043 8.41546 11.3967 8.63844 11.3967 8.87095V14.1309C11.3967 14.3634 11.3043 14.5864 11.1399 14.7508C10.9755 14.9152 10.7525 15.0076 10.52 15.0076C10.2875 15.0076 10.0645 14.9152 9.90009 14.7508C9.73569 14.5864 9.64332 14.3634 9.64332 14.1309V8.87095C9.64332 8.63844 9.73569 8.41546 9.90009 8.25105C10.0645 8.08665 10.2875 7.99428 10.52 7.99428Z" fill="#606060"/>
</svg>
