<svg width="32" height="32" viewBox="0 0 32 32" fill="none" xmlns="http://www.w3.org/2000/svg">
<g id="User opt-3">
<g id="Icon feather-user">
<path id="Path 13411" d="M3.9 24.9299V24.93V27.481C3.9 27.9112 4.07492 28.3232 4.38549 28.6267C4.69598 28.93 5.11662 29.1 5.55474 29.1C5.99286 29.1 6.4135 28.93 6.72399 28.6267C7.03456 28.3232 7.20948 27.9112 7.20948 27.481V24.9301C7.21055 24.0072 7.58625 23.1218 8.25495 22.4685C8.92373 21.8151 9.83097 21.4471 10.7777 21.4461H21.2223C22.169 21.4471 23.0763 21.8151 23.745 22.4685C24.4137 23.1218 24.7895 24.0072 24.7905 24.9301V27.481C24.7905 27.9112 24.9654 28.3232 25.276 28.6267C25.5865 28.93 26.0071 29.1 26.4453 29.1C26.8834 29.1 27.304 28.93 27.6145 28.6267C27.9251 28.3232 28.1 27.9112 28.1 27.481V24.93V24.9299C28.098 23.147 27.3723 21.4381 26.0826 20.1781C24.7931 18.9181 23.0452 18.2099 21.2225 18.208H21.2224L10.7776 18.208L10.7775 18.208C8.95483 18.2099 7.20689 18.9181 5.91736 20.1781C4.62775 21.4381 3.90195 23.147 3.9 24.9299Z" fill="#004687" stroke="#004687" stroke-width="0.2"/>
<path id="Path 13412" d="M16.0008 2.9L16.0007 2.9C14.178 2.9019 12.43 3.61017 11.1405 4.87009C9.85089 6.1301 9.12509 7.83898 9.12314 9.62192V9.62203C9.12314 10.952 9.52682 12.252 10.2828 13.3575C11.0388 14.4629 12.1131 15.3242 13.3696 15.8327C14.626 16.3412 16.0084 16.4742 17.3421 16.215C18.6758 15.9558 19.9012 15.316 20.8632 14.376C21.8252 13.4361 22.4806 12.2383 22.7462 10.9339C23.0117 9.62946 22.8754 8.27743 22.3546 7.04886C21.8337 5.82031 20.9519 4.77062 19.8209 4.03228C18.6899 3.29395 17.3605 2.9 16.0008 2.9ZM16.0024 13.105L16.0024 13.1049L15.9991 13.105C15.5253 13.1128 15.0546 13.0283 14.6146 12.8565C14.1746 12.6848 13.7741 12.4292 13.4365 12.1048C13.0989 11.7805 12.8309 11.3938 12.648 10.9675C12.4651 10.5412 12.371 10.0836 12.371 9.62152C12.371 9.15941 12.4651 8.70186 12.648 8.27553C12.8309 7.8492 13.0989 7.46255 13.4365 7.1382C13.7741 6.81384 14.1746 6.55828 14.6146 6.38652C15.0546 6.21477 15.5253 6.1303 15.9991 6.13808L15.9991 6.13813L16.0024 6.13808C16.4763 6.1303 16.947 6.21477 17.387 6.38652C17.827 6.55828 18.2274 6.81384 18.565 7.1382C18.9026 7.46255 19.1706 7.8492 19.3535 8.27553C19.5364 8.70186 19.6306 9.15941 19.6306 9.62152C19.6306 10.0836 19.5364 10.5412 19.3535 10.9675C19.1706 11.3938 18.9026 11.7805 18.565 12.1048C18.2274 12.4292 17.827 12.6848 17.387 12.8565C16.947 13.0283 16.4763 13.1128 16.0024 13.105Z" fill="#004687" stroke="#004687" stroke-width="0.2"/>
</g>
</g>
</svg>
