<svg width="32" height="32" viewBox="0 0 32 32" fill="none" xmlns="http://www.w3.org/2000/svg">
<path d="M15.5993 8.93074C15.8095 8.93029 16.0109 8.8466 16.1595 8.69798C16.3081 8.54937 16.3918 8.34793 16.3923 8.13776C16.3923 7.86755 16.4996 7.60841 16.6907 7.41735C16.8817 7.22628 17.1409 7.11894 17.4111 7.11894H25.3918C25.5256 7.11894 25.6581 7.14529 25.7817 7.19649C25.9053 7.24769 26.0176 7.32274 26.1122 7.41735C26.2068 7.51195 26.2819 7.62427 26.3331 7.74788C26.3843 7.87148 26.4106 8.00397 26.4106 8.13776L26.4106 22.8605C26.4106 22.9943 26.3843 23.1268 26.3331 23.2504C26.2819 23.374 26.2068 23.4863 26.1122 23.5809C26.0176 23.6755 25.9053 23.7506 25.7817 23.8018C25.6581 23.853 25.5256 23.8793 25.3918 23.8793H17.4111C17.1409 23.8793 16.8817 23.772 16.6907 23.5809C16.4996 23.3899 16.3923 23.1307 16.3923 22.8605C16.3855 22.6548 16.2991 22.4598 16.1512 22.3166C16.0033 22.1735 15.8055 22.0935 15.5997 22.0935C15.3939 22.0935 15.1961 22.1735 15.0482 22.3166C14.9003 22.4598 14.8139 22.6548 14.8072 22.8605C14.8072 23.5514 15.0816 24.2139 15.5701 24.7024C16.0586 25.1909 16.7211 25.4653 17.4119 25.4653H25.3927C25.735 25.4656 26.0739 25.3985 26.3903 25.2678C26.7066 25.137 26.994 24.9452 27.2362 24.7033C27.4783 24.4614 27.6704 24.1741 27.8015 23.8579C27.9325 23.5417 28 23.2028 28 22.8605V8.13861C27.9998 7.44792 27.7252 6.78561 27.2368 6.2973C26.7483 5.80899 26.0859 5.53468 25.3952 5.53468H17.4145C17.0724 5.53468 16.7337 5.60205 16.4177 5.73296C16.1017 5.86386 15.8145 6.05573 15.5726 6.2976C15.3308 6.53948 15.1389 6.82663 15.008 7.14265C14.8771 7.45868 14.8097 7.79739 14.8097 8.13946C14.8106 8.34875 14.894 8.54924 15.0419 8.6974C15.1897 8.84555 15.39 8.9294 15.5993 8.93074Z" fill="#004687" stroke="#004687"/>
<path d="M9.60345 21.0445C9.67691 21.1182 9.76426 21.1767 9.86044 21.2164C9.95661 21.2562 10.0597 21.2766 10.1638 21.2763C10.268 21.2773 10.3713 21.2573 10.4676 21.2175C10.5639 21.1777 10.6512 21.1188 10.7242 21.0445C10.7981 20.9711 10.8568 20.8838 10.8968 20.7876C10.9368 20.6915 10.9575 20.5883 10.9575 20.4841C10.9575 20.38 10.9368 20.2768 10.8968 20.1806C10.8568 20.0845 10.7981 19.9972 10.7242 19.9238L7.03263 16.29H21.5448C21.6511 16.2935 21.757 16.2756 21.8562 16.2373C21.9554 16.199 22.0459 16.1412 22.1223 16.0673C22.1987 15.9933 22.2594 15.9048 22.3009 15.8069C22.3424 15.709 22.3638 15.6038 22.3638 15.4974C22.3638 15.3911 22.3424 15.2859 22.3009 15.188C22.2594 15.0901 22.1987 15.0016 22.1223 14.9276C22.0459 14.8537 21.9554 14.7959 21.8562 14.7576C21.757 14.7193 21.6511 14.7014 21.5448 14.7049L7.01566 14.7049L10.6172 11.0754C10.764 10.9258 10.8463 10.7246 10.8463 10.515C10.8463 10.3054 10.764 10.1042 10.6172 9.95465L10.6112 9.94871C10.4606 9.80778 10.2623 9.72894 10.056 9.72797C9.9517 9.72632 9.8482 9.74603 9.75183 9.78589C9.65546 9.82576 9.56827 9.88492 9.49563 9.95975L4.81841 14.6293C4.70258 14.7336 4.60997 14.8611 4.54658 15.0035C4.48318 15.1459 4.45043 15.3 4.45043 15.4558C4.45043 15.6117 4.48318 15.7658 4.54658 15.9082C4.60997 16.0506 4.70258 16.1781 4.81841 16.2824L9.60345 21.0445Z" fill="#004687" stroke="#004687"/>
</svg>
